<svg width="324" height="118" viewBox="0 0 324 118" fill="none" xmlns="http://www.w3.org/2000/svg">
<rect x="23.5376" y="25.7471" width="14.6095" height="71.4243" fill="#064DC8"/>
<path d="M1.62305 32.7565C1.62305 29.1419 4.23202 26.0552 7.79613 25.453L48.1735 18.6309C52.6932 17.8672 56.8146 21.3506 56.8146 25.9345V25.9345C56.8146 29.5491 54.2056 32.6358 50.6415 33.238L10.2641 40.0601C5.74437 40.8238 1.62305 37.3404 1.62305 32.7565V32.7565Z" fill="#064DC8"/>
<path d="M1.62305 32.7565C1.62305 29.1419 4.23202 26.0552 7.79613 25.453L48.1735 18.6309C52.6932 17.8672 56.8146 21.3506 56.8146 25.9345V25.9345C56.8146 29.5491 54.2056 32.6358 50.6415 33.238L10.2641 40.0601C5.74437 40.8238 1.62305 37.3404 1.62305 32.7565V32.7565Z" fill="#064DC8"/>
<path fill-rule="evenodd" clip-rule="evenodd" d="M0 35.9292C0 27.6449 6.41256 22.9242 14.3229 25.3852L42.625 34.1903C53.3255 37.5194 62 49.3027 62 60.5091C62 68.8262 57.2219 74.4881 50.3836 75.4938C57.209 80.6311 62 89.1943 62 97.439C62 108.421 53.499 114.679 43.0125 111.417L14.3229 102.491C6.41256 100.03 0 91.3195 0 83.0353V61.5112V58.2649V35.9292ZM11.6248 47.7588C11.6248 41.0611 16.8093 37.2444 23.2046 39.2341L24.3093 39.5778C31.6934 41.8751 37.6794 50.0064 37.6794 57.7396C37.6794 65.4506 31.7278 69.8541 24.373 67.6019C31.7277 69.9261 37.6792 78.0328 37.6792 85.7437C37.6792 93.4769 31.6932 97.8836 24.3091 95.5863L21.7103 94.7778C16.1401 93.0449 11.6246 86.9111 11.6246 81.0776V63.6356L11.6248 63.6356V47.7588Z" fill="#1A73F8"/>
<path d="M286.115 52.3128L291.991 58.717L297.268 53.2874L297.212 50.5726H277.248L277.166 44.4468H286.291L286.213 38.8084H276.721L276.635 32.1954H286.189L286.153 28.7148L286.111 26.0696H297.314L297.334 32.1954H306.826L306.912 38.8084H297.42L297.437 44.4468H306.378L306.477 56.211L297.848 64.982L308.071 75.9805H296.497L291.91 70.9685L286.831 76.0501H275.134L286.227 64.6339L277.466 54.9581L277.48 52.3128H286.115ZM261.42 69.6459L261.299 59.5524L256.717 61.0142L256.661 53.7051L261.243 52.2432L261.092 40.5486H256.499L256.475 33.9356H261.068L261.013 28.0187L261.002 26H271.4L271.478 33.9356H274.846L274.871 40.5486H271.503L271.637 48.9019L274.979 47.7881L275.035 55.0973L271.693 56.211L271.836 71.5254C271.811 72.8712 271.388 73.985 270.567 74.8667C269.78 75.702 268.815 76.1197 267.672 76.1197H257.801L258.188 69.6459H261.42Z" fill="#1B1B1B"/>
<path d="M221.995 33.7268L215.342 34.3533L215.43 40.0614H223.023L223.113 47.1617H215.458L215.767 76.1197H206.826L206.517 47.1617H198.984L198.895 40.0614H206.489L206.442 35.119L199.361 35.7455L199.271 28.6452L221.906 26.6265L221.995 33.7268ZM250.188 61.9191L246.895 62.476L246.999 76.1197H237.323L237.169 63.9378L224.874 65.8869L224.8 58.4386L237.094 56.4895L236.863 28.5756L236.838 26H246.563L246.82 55.0277L250.114 54.4708L250.188 61.9191ZM199.265 73.6137L199.979 49.1108H206.042L205.328 73.6137H199.265ZM217.392 73.6137L216.085 49.1108H222.148L223.394 73.6137H217.392ZM235.459 54.3316H226.334L224.007 45.1429H233.132L235.459 54.3316ZM235.492 40.3398H226.367L223.917 31.1512H233.042L235.492 40.3398Z" fill="#1B1B1B"/>
<path d="M187.993 45.839L188.14 66.235C188.156 67.5808 187.757 68.7178 186.941 69.6459C186.161 70.5276 185.199 70.9685 184.056 70.9685H171.93L171.829 64.3555H176.499L176.382 52.4521H168.237L168.453 76.1197H156.817L156.601 52.4521H139.148L139.124 45.839H187.993ZM148.322 37.2073H139.014L138.928 30.5943H148.237L148.222 28.6452L148.26 26H158.708L158.77 30.5943H168.017L168.002 28.6452L167.977 26H178.489L178.55 30.5943H187.797L187.883 37.2073H178.575L178.669 43.8899H168.197L168.103 37.2073H158.794L158.889 43.8899H148.417L148.322 37.2073Z" fill="#1B1B1B"/>
<path d="M100.567 55.9326L100.573 53.2178L113.476 48.4843H86.5304L86.4874 41.732H127.212L127.308 49.8069L112.203 55.9326H131.983L132.088 62.6848H112.246L112.365 71.3862C112.381 72.732 111.982 73.869 111.166 74.7971C110.386 75.6788 109.403 76.1197 108.219 76.1197H97.9108L98.0745 69.6925H100.626L100.672 62.6848H80.8913L80.7871 55.9326H100.567ZM117.829 36.5808H94.5578L94.6303 40.3398H81.8313L81.7344 29.9678H100.29L100.288 28.5756L100.241 26H112.866L112.844 29.9678H130.603L130.7 40.3398H117.901L117.829 36.5808Z" fill="#1B1B1B"/>
<path d="M80.68 84.864H88.528C90.232 84.864 91.576 85.272 92.536 86.088C93.424 86.856 93.88 87.888 93.88 89.184C93.88 90.144 93.64 90.96 93.184 91.632C92.728 92.256 92.08 92.712 91.216 93.048C92.344 93.264 93.184 93.72 93.76 94.416C94.312 95.088 94.6 96.024 94.6 97.176C94.6 98.904 94 100.176 92.824 100.992C91.816 101.664 90.376 102 88.552 102H80.68V84.864ZM83.488 87.168V92.064H87.784C88.984 92.064 89.824 91.848 90.328 91.464C90.808 91.056 91.072 90.408 91.072 89.52C91.072 88.704 90.808 88.104 90.328 87.744C89.8 87.36 88.984 87.168 87.832 87.168H83.488ZM83.488 94.368V99.696H88.144C89.2 99.696 90.04 99.528 90.64 99.192C91.408 98.76 91.792 98.088 91.792 97.128C91.792 96.144 91.504 95.448 90.952 95.016C90.376 94.584 89.464 94.368 88.216 94.368H83.488ZM105.77 84.864H109.154L113.954 92.568L118.73 84.864H122.114L115.346 95.184V102H112.538V95.184L105.77 84.864ZM132.684 84.864H146.724V87.264H141.108V102H138.3V87.264H132.684V84.864ZM158.85 84.864H171.21V87.264H161.658V92.016H170.634V94.416H161.658V99.6H171.618V102H158.85V84.864ZM213.56 84.864H227.6V87.264H221.984V102H219.176V87.264H213.56V84.864ZM239.726 84.864H252.086V87.264H242.534V92.016H251.51V94.416H242.534V99.6H252.494V102H239.726V84.864ZM272.644 84.528C274.66 84.528 276.34 85.056 277.636 86.112C278.884 87.12 279.628 88.512 279.892 90.24H277.156C276.868 89.112 276.34 88.296 275.548 87.768C274.78 87.24 273.796 87 272.596 87C270.796 87 269.452 87.6 268.54 88.848C267.7 89.952 267.292 91.488 267.292 93.456C267.292 95.472 267.7 97.032 268.516 98.112C269.404 99.264 270.796 99.864 272.668 99.864C273.892 99.864 274.9 99.552 275.668 98.976C276.484 98.328 277.06 97.344 277.396 96.048H280.132C279.748 98.064 278.86 99.624 277.444 100.752C276.124 101.808 274.54 102.336 272.692 102.336C269.836 102.336 267.7 101.424 266.308 99.648C265.084 98.112 264.484 96.048 264.484 93.456C264.484 90.912 265.108 88.824 266.38 87.24C267.82 85.416 269.908 84.528 272.644 84.528ZM292.862 84.864H295.67V92.016H304.358V84.864H307.166V102H304.358V94.416H295.67V102H292.862V84.864Z" fill="black"/>
</svg>
